<?xml version="1.0" encoding="UTF-8" standalone="no"?>
<svg width="51px" height="29px" viewBox="0 0 51 29" version="1.1" xmlns="http://www.w3.org/2000/svg" xmlns:xlink="http://www.w3.org/1999/xlink">
    <!-- Generator: Sketch 45.2 (43514) - http://www.bohemiancoding.com/sketch -->
    <title>Stroke 3 Copy 2</title>
    <desc>Created with Sketch.</desc>
    <defs></defs>
    <g id="Page-1" stroke="none" stroke-width="1" fill="none" fill-rule="evenodd">
        <g id="Artboard-Copy-5" fill-rule="nonzero" fill="#FFFFFF">
            <path d="M43.8358439,26.8652811 L45.9571642,24.7439608 C51.6076497,19.0934753 51.6076497,9.88834965 45.9571642,4.23786414 C40.3066787,-1.41262138 31.1015531,-1.41262138 25.4510676,4.23786414 L14.8444659,14.8444659 C14.6613204,15.0276113 14.3205045,15.0276113 14.1373591,14.8444659 C13.9542136,14.6613204 13.9542136,14.3205045 14.1373591,14.1373591 L16.2586794,12.0160387 C18.9923495,9.28236869 18.9923495,4.85021383 16.2586794,2.11654379 C13.5250094,-0.61712625 9.09285452,-0.61712625 6.35918448,2.11654379 L4.23786414,4.23786414 C-1.41262138,9.88834965 -1.41262138,19.0934753 4.23786414,24.7439608 C9.88834965,30.3944463 19.0934753,30.3944463 24.7439608,24.7439608 L35.3505625,14.1373591 C35.5337079,13.9542136 35.8745239,13.9542136 36.0576693,14.1373591 C36.2408147,14.3205045 36.2408147,14.6613204 36.0576693,14.8444659 L33.9363489,16.9657862 C31.2026789,19.6994562 31.2026789,24.1316111 33.9363489,26.8652811 C36.670019,29.5989512 41.1021738,29.5989512 43.8358439,26.8652811 Z" id="Stroke-3-Copy-2"></path>
        </g>
    </g>
</svg>