<?xml version="1.0" encoding="UTF-8" standalone="no"?>
<svg width="55px" height="30px" viewBox="0 0 55 30" version="1.1" xmlns="http://www.w3.org/2000/svg" xmlns:xlink="http://www.w3.org/1999/xlink">
    <!-- Generator: Sketch 45.2 (43514) - http://www.bohemiancoding.com/sketch -->
    <title>Stroke 3</title>
    <desc>Created with Sketch.</desc>
    <defs></defs>
    <g id="Page-1" stroke="none" stroke-width="1" fill="none" fill-rule="evenodd">
        <g id="Artboard-Copy-5" fill="#FFFFFF">
            <path d="M48.8297478,28.014085 L51.8308206,24.0315268 C56.7894474,17.4512068 55.4666847,8.03926088 48.8863647,3.08063406 C42.3060446,-1.87799277 32.8940987,-0.555230034 27.9354719,6.02509002 L18.9322535,17.9727644 C17.2885201,20.1540722 14.1299304,20.597983 11.9486226,18.9542497 C9.76731473,17.3105164 9.32340389,14.1519266 10.9671372,11.9706188 L13.96821,7.98806065 C15.6256568,5.78855454 15.1862308,2.66187647 12.9867247,1.00442973 C10.7872186,-0.653017011 7.66054053,-0.213591066 6.00309379,1.98591505 L3.00202099,5.96847317 C-1.95660583,12.5487932 -0.633843101,21.9607391 5.94647695,26.9193659 C12.526797,31.8779928 21.9387429,30.55523 26.8973697,23.97491 L35.9005881,12.0272356 C37.5443215,9.8459278 40.7029112,9.40201696 42.884219,11.0457503 C45.0655269,12.6894836 45.5094377,15.8480734 43.8657044,18.0293812 L40.8646316,22.0119393 C39.2071848,24.2114455 39.6466108,27.3381235 41.8461169,28.9955703 C44.045623,30.653017 47.1723011,30.2135911 48.8297478,28.014085 Z" id="Stroke-3"></path>
        </g>
    </g>
</svg>